<?xml version="1.0" encoding="UTF-8"?>
<svg id="Layer_1" data-name="Layer 1" xmlns="http://www.w3.org/2000/svg" viewBox="0 0 100 100">
  <defs>
    <style>
      .cls-1 {
        fill: #faa31b;
      }

      .cls-2 {
        fill: #fff;
      }
    </style>
  </defs>
  <path class="cls-2" d="M41.66,81.55c-2.85-.14-4.59-.63-6.84.72-3.41,2.05-6.88,3.66-10.57,5.49-.91.45-2.47.42-3.17-.03-.97-.61-1.52-2.17-1.38-3.42l.76-6.7c-5.94-3.21-10.05-8.67-10.38-15.53l-.48-10.02c-.18-3.82-.3-7.61-.02-11.4l.52-7.06c.62-8.44,6.53-15.01,14.51-17.42,8.46-2.56,23.15-2.95,32.12-2.44,7.58.43,18.38.59,24.52,5.56,5.53,4.48,8.37,10.69,8.71,17.82s.26,13.98.1,21.16c-.03,1.44-.45,3.35-.62,4.78-.89,7.54-5.51,13.18-12.65,15.81-8.98,3.31-24.95,3.16-35.12,2.67ZM40.11,80.67c12.08.11,23.47.85,34.52-1.98,5.08-1.3,9.71-4.2,11.95-8.97,1.36-2.91,2.32-6.29,2.43-9.56.26-7.95.3-15.7-.03-23.63-.41-9.96-6.48-18.4-16.56-20.29-3.18-.6-6.4-1.05-9.64-1.27l-5.6-.37c-4.58-.3-9.26-.28-13.83,0l-6.09.38c-8.79.54-19.44,2.32-23.91,10.91-1.87,3.6-2.49,8.01-2.75,12.21-.5,8.29-.64,20.16,1.31,28.12,1.25,5.12,4.89,8.78,9.58,10.9-.57,3.21-.79,6.51-.58,9.59.98,2.72,13.43-5.03,15.61-6.29.71-.41,2.55.24,3.61.25Z"/>
  <path d="M40.11,80.67c-1.06,0-2.89-.66-3.61-.25-2.18,1.26-14.63,9.01-15.61,6.29-.21-3.08.02-6.38.58-9.59-4.69-2.12-8.33-5.78-9.58-10.9-1.95-7.96-1.81-19.83-1.31-28.12.26-4.2.87-8.61,2.75-12.21,4.47-8.59,15.12-10.37,23.91-10.91l6.09-.38c4.58-.28,9.26-.3,13.83,0l5.6.37c3.24.21,6.46.67,9.64,1.27,10.09,1.9,16.16,10.33,16.56,20.29.32,7.93.28,15.68.03,23.63-.11,3.27-1.06,6.65-2.43,9.56-2.24,4.77-6.87,7.68-11.95,8.97-11.05,2.82-22.44,2.09-34.52,1.98ZM49.41,22.77c-1.84.22-3.17,2.17-2.9,3.78.3,1.77,2.13,2.93,3.86,2.6s3.06-1.89,2.62-3.84c-.31-1.39-1.83-2.75-3.58-2.54ZM33.16,66.44l11.38-10.99c1.02.23,2.37.76,3.3,1.3l.27,12.89c.02,1.14.77,2.27,1.88,2.32.82.03,2.11-1.12,2.12-2.14l.02-12.54c0-.72,1.72-1.69,2.4-1.56.58.11,1.43.71,2.02,1.26l10.38,9.69c.51.48,2.02.43,2.47-.06.39-.42.43-2.06-.07-2.52l-10.66-9.71c-.66-.61-1.14-1.92-.9-2.57.28-.77,1.51-1.59,2.37-1.56l16.62.52c1.11.03,2.14-1.04,2.02-2.14-.08-.74-1.13-1.6-2.06-1.6l-17.54-.09c-.75,0-1.69-1.68-1.59-2.36.08-.59.67-1.52,1.31-2.12l10.1-9.59c.47-.45.1-2.24-.4-2.45s-1.68-.18-2.13.25l-10.24,9.78c-.48.46-1.55.85-2.11.86s-1.87-.95-1.88-1.59l-.13-6.88c-.02-.91-.97-2.03-1.69-2.21s-2.49.49-2.52,1.21l-.26,7.43c-.02.7-1.16,1.81-1.85,2-.64.17-1.84-.22-2.52-.86l-10.55-9.94c-.41-.38-2.14.04-2.39.53s-.19,1.71.24,2.11l11.14,10.36c.44.41.47,1.74.19,2.21s-1.48,1.22-2.03,1.22h-16.59c-1.14.02-2.15,1.02-2.04,2.14.07.67,1.17,1.58,2.14,1.57l17.36-.26c.64,0,1.65,1.69,1.44,2.27-.18.5-.74,1.23-1.33,1.79l-10.14,9.63c-.5.48-.26,2.12.23,2.46.41.28,1.87.29,2.24-.06Z"/>
  <path class="cls-2" d="M33.16,66.44c-.37.36-1.83.35-2.24.06-.49-.34-.73-1.98-.23-2.46l10.14-9.63c.59-.56,1.15-1.29,1.33-1.79.21-.58-.8-2.28-1.44-2.27l-17.36.26c-.96.01-2.07-.9-2.14-1.57-.11-1.12.9-2.13,2.04-2.13h16.59c.56-.02,1.75-.77,2.03-1.24s.25-1.8-.19-2.21l-11.14-10.36c-.43-.4-.49-1.61-.24-2.11s1.98-.91,2.39-.53l10.55,9.94c.68.64,1.88,1.03,2.52.86.69-.18,1.82-1.3,1.85-2l.26-7.43c.03-.72,1.84-1.38,2.52-1.21s1.67,1.3,1.69,2.21l.13,6.88c.01.64,1.32,1.6,1.88,1.59s1.63-.41,2.11-.86l10.24-9.78c.45-.43,1.62-.47,2.13-.25s.88,2.01.4,2.45l-10.1,9.59c-.64.6-1.22,1.53-1.31,2.12-.1.68.84,2.36,1.59,2.36l17.54.09c.93,0,1.98.86,2.06,1.6.11,1.09-.91,2.17-2.02,2.14l-16.62-.52c-.85-.03-2.09.79-2.37,1.56-.24.65.24,1.96.9,2.57l10.66,9.71c.51.46.46,2.1.07,2.52-.45.49-1.96.54-2.47.06l-10.38-9.69c-.58-.54-1.44-1.15-2.02-1.26-.68-.13-2.39.84-2.4,1.56l-.02,12.54c0,1.02-1.3,2.18-2.12,2.14-1.11-.04-1.86-1.17-1.88-2.32l-.27-12.89c-.93-.54-2.28-1.07-3.3-1.3l-11.38,10.99ZM50.49,52.9c3.11-.42,4.66-3.34,3.78-5.77s-3.64-3.76-6.18-2.52c-2.01.98-3.07,3.27-2.5,5.02.65,2.02,2.42,3.6,4.9,3.26Z"/>
  <path class="cls-1" d="M49.41,22.77c1.75-.21,3.27,1.15,3.58,2.54.44,1.95-.86,3.51-2.62,3.84s-3.56-.83-3.86-2.6c-.27-1.61,1.06-3.56,2.9-3.78Z"/>
  <path d="M50.49,52.9c-2.48.33-4.25-1.25-4.9-3.26-.56-1.75.49-4.04,2.5-5.02,2.54-1.24,5.32.14,6.18,2.52s-.67,5.35-3.78,5.77Z"/>
</svg>